<?xml version="1.0" encoding="UTF-8" standalone="no"?>
<!DOCTYPE svg PUBLIC "-//W3C//DTD SVG 1.1//EN"
 "http://www.w3.org/Graphics/SVG/1.1/DTD/svg11.dtd">
<!-- Generated by graphviz version 2.43.0 (0)
 -->
<!-- Title: kg_qa_pipeline Pages: 1 -->
<svg width="1900pt" height="256pt"
 viewBox="0.00 0.00 1900.40 256.40" xmlns="http://www.w3.org/2000/svg" xmlns:xlink="http://www.w3.org/1999/xlink">
<g id="graph0" class="graph" transform="scale(1 1) rotate(0) translate(25.2 231.2)">
<title>kg_qa_pipeline</title>
<!-- question -->
<g id="node1" class="node">
<title>question</title>
<path fill="#e8f2ff" stroke="#24435f" stroke-width="1.4" d="M387,-40C387,-40 286,-40 286,-40 280,-40 274,-34 274,-28 274,-28 274,-12 274,-12 274,-6 280,0 286,0 286,0 387,0 387,0 393,0 399,-6 399,-12 399,-12 399,-28 399,-28 399,-34 393,-40 387,-40"/>
<text text-anchor="middle" x="336.5" y="-23.4" font-family="Helvetica,sans-Serif" font-size="12.00">Natural&#45;language</text>
<text text-anchor="middle" x="336.5" y="-10.4" font-family="Helvetica,sans-Serif" font-size="12.00">question</text>
</g>
<!-- parser -->
<g id="node2" class="node">
<title>parser</title>
<path fill="#f5f8fb" stroke="#24435f" stroke-width="1.4" d="M622,-40C622,-40 466,-40 466,-40 460,-40 454,-34 454,-28 454,-28 454,-12 454,-12 454,-6 460,0 466,0 466,0 622,0 622,0 628,0 634,-6 634,-12 634,-12 634,-28 634,-28 634,-34 628,-40 622,-40"/>
<text text-anchor="middle" x="544" y="-23.4" font-family="Helvetica,sans-Serif" font-size="12.00">LLM query parser</text>
<text text-anchor="middle" x="544" y="-10.4" font-family="Helvetica,sans-Serif" font-size="12.00">(subject, predicate, object)</text>
</g>
<!-- question&#45;&gt;parser -->
<g id="edge1" class="edge">
<title>question&#45;&gt;parser</title>
<path fill="none" stroke="#536878" stroke-width="1.4" d="M399.16,-20C413.75,-20 429.68,-20 445.44,-20"/>
<polygon fill="#536878" stroke="#536878" stroke-width="1.4" points="445.66,-22.8 453.66,-20 445.66,-17.2 445.66,-22.8"/>
</g>
<!-- entity_matcher -->
<g id="node3" class="node">
<title>entity_matcher</title>
<path fill="#f5f8fb" stroke="#24435f" stroke-width="1.4" d="M862,-43C862,-43 730,-43 730,-43 724,-43 718,-37 718,-31 718,-31 718,-15 718,-15 718,-9 724,-3 730,-3 730,-3 862,-3 862,-3 868,-3 874,-9 874,-15 874,-15 874,-31 874,-31 874,-37 868,-43 862,-43"/>
<text text-anchor="middle" x="796" y="-26.4" font-family="Helvetica,sans-Serif" font-size="12.00">Entity linker</text>
<text text-anchor="middle" x="796" y="-13.4" font-family="Helvetica,sans-Serif" font-size="12.00">SentenceTransformers</text>
</g>
<!-- parser&#45;&gt;entity_matcher -->
<g id="edge2" class="edge">
<title>parser&#45;&gt;entity_matcher</title>
<path fill="none" stroke="#536878" stroke-width="1.4" d="M634.2,-21.07C658.76,-21.37 685.35,-21.68 709.69,-21.98"/>
<polygon fill="#536878" stroke="#536878" stroke-width="1.4" points="709.82,-24.78 717.85,-22.07 709.89,-19.18 709.82,-24.78"/>
</g>
<!-- local_subgraph -->
<g id="node4" class="node">
<title>local_subgraph</title>
<path fill="#f5f8fb" stroke="#24435f" stroke-width="1.4" d="M1055,-134C1055,-134 941,-134 941,-134 935,-134 929,-128 929,-122 929,-122 929,-106 929,-106 929,-100 935,-94 941,-94 941,-94 1055,-94 1055,-94 1061,-94 1067,-100 1067,-106 1067,-106 1067,-122 1067,-122 1067,-128 1061,-134 1055,-134"/>
<text text-anchor="middle" x="998" y="-117.4" font-family="Helvetica,sans-Serif" font-size="12.00">Local subgraph</text>
<text text-anchor="middle" x="998" y="-104.4" font-family="Helvetica,sans-Serif" font-size="12.00">RDFLib + NetworkX</text>
</g>
<!-- entity_matcher&#45;&gt;local_subgraph -->
<g id="edge3" class="edge">
<title>entity_matcher&#45;&gt;local_subgraph</title>
<path fill="none" stroke="#536878" stroke-width="1.4" d="M841.39,-43.2C872.07,-57.16 913,-75.78 945.18,-90.42"/>
<polygon fill="#536878" stroke="#536878" stroke-width="1.4" points="944.3,-93.1 952.74,-93.86 946.62,-88 944.3,-93.1"/>
</g>
<!-- predicate_matcher -->
<g id="node5" class="node">
<title>predicate_matcher</title>
<path fill="#f5f8fb" stroke="#24435f" stroke-width="1.4" d="M1278,-134C1278,-134 1171,-134 1171,-134 1165,-134 1159,-128 1159,-122 1159,-122 1159,-106 1159,-106 1159,-100 1165,-94 1171,-94 1171,-94 1278,-94 1278,-94 1284,-94 1290,-100 1290,-106 1290,-106 1290,-122 1290,-122 1290,-128 1284,-134 1278,-134"/>
<text text-anchor="middle" x="1224.5" y="-117.4" font-family="Helvetica,sans-Serif" font-size="12.00">Predicate matcher</text>
<text text-anchor="middle" x="1224.5" y="-104.4" font-family="Helvetica,sans-Serif" font-size="12.00">vector similarity</text>
</g>
<!-- local_subgraph&#45;&gt;predicate_matcher -->
<g id="edge4" class="edge">
<title>local_subgraph&#45;&gt;predicate_matcher</title>
<path fill="none" stroke="#536878" stroke-width="1.4" d="M1067.27,-114C1093.58,-114 1123.71,-114 1150.45,-114"/>
<polygon fill="#536878" stroke="#536878" stroke-width="1.4" points="1150.63,-116.8 1158.63,-114 1150.63,-111.2 1150.63,-116.8"/>
</g>
<!-- sparql -->
<g id="node6" class="node">
<title>sparql</title>
<path fill="#f5f8fb" stroke="#24435f" stroke-width="1.4" d="M1465,-134C1465,-134 1357,-134 1357,-134 1351,-134 1345,-128 1345,-122 1345,-122 1345,-110 1345,-110 1345,-104 1351,-98 1357,-98 1357,-98 1465,-98 1465,-98 1471,-98 1477,-104 1477,-110 1477,-110 1477,-122 1477,-122 1477,-128 1471,-134 1465,-134"/>
<text text-anchor="middle" x="1411" y="-112.9" font-family="Helvetica,sans-Serif" font-size="12.00">SPARQL generator</text>
</g>
<!-- predicate_matcher&#45;&gt;sparql -->
<g id="edge5" class="edge">
<title>predicate_matcher&#45;&gt;sparql</title>
<path fill="none" stroke="#536878" stroke-width="1.4" d="M1290.03,-114.7C1305.16,-114.86 1321.39,-115.04 1336.87,-115.21"/>
<polygon fill="#536878" stroke="#536878" stroke-width="1.4" points="1336.85,-118.01 1344.88,-115.29 1336.91,-112.41 1336.85,-118.01"/>
</g>
<!-- execution -->
<g id="node7" class="node">
<title>execution</title>
<path fill="#f5f8fb" stroke="#24435f" stroke-width="1.4" d="M1660,-175C1660,-175 1544,-175 1544,-175 1538,-175 1532,-169 1532,-163 1532,-163 1532,-147 1532,-147 1532,-141 1538,-135 1544,-135 1544,-135 1660,-135 1660,-135 1666,-135 1672,-141 1672,-147 1672,-147 1672,-163 1672,-163 1672,-169 1666,-175 1660,-175"/>
<text text-anchor="middle" x="1602" y="-158.4" font-family="Helvetica,sans-Serif" font-size="12.00">RDFLib execution</text>
<text text-anchor="middle" x="1602" y="-145.4" font-family="Helvetica,sans-Serif" font-size="12.00">against Turtle graph</text>
</g>
<!-- sparql&#45;&gt;execution -->
<g id="edge6" class="edge">
<title>sparql&#45;&gt;execution</title>
<path fill="none" stroke="#536878" stroke-width="1.4" d="M1477.04,-129.42C1492.14,-132.54 1508.35,-135.88 1523.9,-139.09"/>
<polygon fill="#536878" stroke="#536878" stroke-width="1.4" points="1523.57,-141.88 1531.97,-140.76 1524.7,-136.4 1523.57,-141.88"/>
</g>
<!-- answer -->
<g id="node8" class="node">
<title>answer</title>
<path fill="#eaf7ef" stroke="#24435f" stroke-width="1.4" d="M1838,-175C1838,-175 1739,-175 1739,-175 1733,-175 1727,-169 1727,-163 1727,-163 1727,-147 1727,-147 1727,-141 1733,-135 1739,-135 1739,-135 1838,-135 1838,-135 1844,-135 1850,-141 1850,-147 1850,-147 1850,-163 1850,-163 1850,-169 1844,-175 1838,-175"/>
<text text-anchor="middle" x="1788.5" y="-158.4" font-family="Helvetica,sans-Serif" font-size="12.00">Readable answer</text>
<text text-anchor="middle" x="1788.5" y="-145.4" font-family="Helvetica,sans-Serif" font-size="12.00">+ batch results</text>
</g>
<!-- execution&#45;&gt;answer -->
<g id="edge7" class="edge">
<title>execution&#45;&gt;answer</title>
<path fill="none" stroke="#536878" stroke-width="1.4" d="M1672.23,-155C1687.41,-155 1703.48,-155 1718.65,-155"/>
<polygon fill="#536878" stroke="#536878" stroke-width="1.4" points="1718.98,-157.8 1726.98,-155 1718.98,-152.2 1718.98,-157.8"/>
</g>
<!-- graph_asset -->
<g id="node9" class="node">
<title>graph_asset</title>
<path fill="#fff7e6" stroke="#8a6426" stroke-width="1.4" d="M620,-145.5C620,-148.26 585.94,-150.5 544,-150.5 502.06,-150.5 468,-148.26 468,-145.5 468,-145.5 468,-100.5 468,-100.5 468,-97.74 502.06,-95.5 544,-95.5 585.94,-95.5 620,-97.74 620,-100.5 620,-100.5 620,-145.5 620,-145.5"/>
<path fill="none" stroke="#8a6426" stroke-width="1.4" d="M620,-145.5C620,-142.74 585.94,-140.5 544,-140.5 502.06,-140.5 468,-142.74 468,-145.5"/>
<text text-anchor="middle" x="544" y="-126.4" font-family="Helvetica,sans-Serif" font-size="12.00">data/output_graph.ttl</text>
<text text-anchor="middle" x="544" y="-113.4" font-family="Helvetica,sans-Serif" font-size="12.00">RDF knowledge graph</text>
</g>
<!-- graph_asset&#45;&gt;entity_matcher -->
<g id="edge8" class="edge">
<title>graph_asset&#45;&gt;entity_matcher</title>
<path fill="none" stroke="#536878" stroke-width="1.4" d="M610.03,-96.99C649.5,-81.2 699.42,-61.23 737.46,-46.02"/>
<polygon fill="#536878" stroke="#536878" stroke-width="1.4" points="738.51,-48.61 744.9,-43.04 736.43,-43.41 738.51,-48.61"/>
<text text-anchor="middle" x="676" y="-78" font-family="Helvetica,sans-Serif" font-size="10.00">labels</text>
</g>
<!-- graph_asset&#45;&gt;local_subgraph -->
<g id="edge9" class="edge">
<title>graph_asset&#45;&gt;local_subgraph</title>
<path fill="none" stroke="#536878" stroke-width="1.4" d="M620.15,-121.5C703.35,-119.85 836.77,-117.19 920.51,-115.52"/>
<polygon fill="#536878" stroke="#536878" stroke-width="1.4" points="920.77,-118.32 928.71,-115.36 920.65,-112.72 920.77,-118.32"/>
<text text-anchor="middle" x="796" y="-122" font-family="Helvetica,sans-Serif" font-size="10.00">triples</text>
</g>
<!-- graph_asset&#45;&gt;execution -->
<g id="edge10" class="edge">
<title>graph_asset&#45;&gt;execution</title>
<path fill="none" stroke="#536878" stroke-width="1.4" d="M620.01,-144.6C693.65,-165.81 795,-195 795,-195 795,-195 795,-195 1412,-195 1412,-195 1471.69,-182.37 1523.98,-171.3"/>
<polygon fill="#536878" stroke="#536878" stroke-width="1.4" points="1524.72,-174.01 1531.96,-169.61 1523.56,-168.53 1524.72,-174.01"/>
<text text-anchor="middle" x="1113" y="-198" font-family="Helvetica,sans-Serif" font-size="10.00">SPARQL</text>
</g>
<!-- questions_asset -->
<g id="node10" class="node">
<title>questions_asset</title>
<polygon fill="#fff7e6" stroke="#8a6426" stroke-width="1.4" points="186,-40 0,-40 0,0 192,0 192,-34 186,-40"/>
<polyline fill="none" stroke="#8a6426" stroke-width="1.4" points="186,-40 186,-34 "/>
<polyline fill="none" stroke="#8a6426" stroke-width="1.4" points="192,-34 186,-34 "/>
<text text-anchor="middle" x="96" y="-23.4" font-family="Helvetica,sans-Serif" font-size="12.00">data/questions_set_easy.json</text>
<text text-anchor="middle" x="96" y="-10.4" font-family="Helvetica,sans-Serif" font-size="12.00">curated questions</text>
</g>
<!-- questions_asset&#45;&gt;question -->
<g id="edge11" class="edge">
<title>questions_asset&#45;&gt;question</title>
<path fill="none" stroke="#536878" stroke-width="1.4" d="M192.29,-20C216.9,-20 242.92,-20 265.94,-20"/>
<polygon fill="#536878" stroke="#536878" stroke-width="1.4" points="265.95,-22.8 273.95,-20 265.95,-17.2 265.95,-22.8"/>
<text text-anchor="middle" x="233" y="-23" font-family="Helvetica,sans-Serif" font-size="10.00">batch</text>
</g>
</g>
</svg>
